HIERARCHY
ROOT Hips
{
	OFFSET 0.00000 0.00000 0.00000
	CHANNELS 6 Xposition Yposition Zposition Yrotation Zrotation Xrotation 
	JOINT Lumbar
	{
		OFFSET 0 0 0
		CHANNELS 3 Zrotation Xrotation Yrotation
		JOINT Neck
		{
			OFFSET 0.00 0.2701 0.00
			CHANNELS 3 Zrotation Xrotation Yrotation
			End Site
			{
				OFFSET 0.00 0.1379 0.00
			}
		}
		JOINT RightShoulder
		{
			OFFSET 0.0119 0.2289 0.1181
			CHANNELS 3 Zrotation Xrotation Yrotation
			JOINT RightElbow
			{
				OFFSET 0.00 -0.1475 0.00
				CHANNELS 2 Zrotation Yrotation
				JOINT RightWrist
				{
					OFFSET 0.00 -0.1605 0.00
					CHANNELS 2 Zrotation Xrotation
					End Site
					{
						OFFSET 0.0040 -0.1068 0.0006
					}
				}
			}
		}
		JOINT LeftShoulder
		{
			OFFSET 0.0119 0.2289 -0.1181
			CHANNELS 3 Zrotation Xrotation Yrotation
			JOINT LeftElbow
			{
				OFFSET 0.00 -0.1475 0.00
				CHANNELS 2 Zrotation Yrotation
				JOINT LeftWrist
				{
					OFFSET 0.00 -0.1605 0.00
					CHANNELS 2 Zrotation Xrotation
					End Site
					{
						OFFSET 0.0040 -0.1068 -0.0006
					}
				}
			}
		}
	}
	JOINT RightHip
	{
		OFFSET 0.0316 -0.0424 0.0458
		CHANNELS 3 Zrotation Xrotation Yrotation
		JOINT RightKnee
		{
			OFFSET 0.00 -0.2438 0.00
			CHANNELS 1 Zrotation
			JOINT RightAnkle
			{
				OFFSET 0.00 -0.2449 0.00
				CHANNELS 3 Zrotation Xrotation Yrotation
				End Site
				{
					OFFSET 0.1237 -0.0542 0.0051
				}
			}
		}
	}
	JOINT LeftHip
	{
		OFFSET 0.0316 -0.0424 -0.0458
		CHANNELS 3 Zrotation Xrotation Yrotation
		JOINT LeftKnee
		{
			OFFSET 0.00 -0.2438 0.00
			CHANNELS 1 Zrotation
			JOINT LeftAnkle
			{
				OFFSET 0.00 -0.2449 0.00
				CHANNELS 3 Zrotation Xrotation Yrotation
				End Site
				{
					OFFSET 0.1237 -0.0542 -0.0051
				}
			}
		}
	}
}
MOTION
Frames: 25
Frame Time: 0.02
0.39782 0.06041 0.17097 29.79672 -38.93152 -4.2819 29.31205 2.8657 7.73658 3.58093 -2.20088 -0.83079 19.41685 -3.02281 61.00445 92.26173 76.02159 -5.20112 2.35871 24.69181 46.20596 -8.89153 68.10655 -72.50057 -8.55752 -1.01896 63.18648 -1.59944 -6.59128 -33.88466 -6.91816 -2.79764 -2.0835 65.25395 11.3673 -0.13116 -29.09293 -9.08982 3.2744 2.44862
0.40047 0.06109 0.17426 29.92785 -39.1529 -4.26898 29.39126 2.8362 7.35473 3.92057 -2.4875 -0.83079 19.31698 -3.10503 61.13117 92.38022 76.64709 -4.93103 2.39862 28.2299 47.05885 -12.16536 66.62299 -69.57618 -9.21761 -1.61809 63.02326 -1.20385 -6.81227 -33.27588 -6.91725 -2.7898 -2.08365 65.0297 11.47676 -1.2667 -28.26176 -9.24049 3.38066 2.5183
0.40311 0.06173 0.17733 30.04631 -39.35349 -4.23976 29.48972 2.80889 6.92599 4.29735 -2.79208 -0.83079 19.1813 -3.1686 61.26305 92.50222 77.67265 -4.60954 2.44006 32.1689 48.04542 -15.95248 64.80279 -65.88167 -10.06102 -2.39704 62.8397 -0.82875 -6.99874 -32.67483 -6.91753 -2.77986 -2.08459 64.76092 11.50756 -2.63498 -27.42482 -9.40622 3.52209 2.6095
0.40575 0.0624 0.18048 30.17907 -39.56715 -4.22344 29.57874 2.7883 6.49858 4.67346 -3.0981 -0.83079 19.05856 -3.23728 61.39103 92.6165 78.49517 -4.31444 2.47474 36.09078 48.92414 -19.61188 63.03672 -62.81956 -10.74617 -3.07183 62.66741 -0.43943 -7.18744 -32.06558 -6.91907 -2.77476 -2.08705 64.51798 11.58399 -3.85887 -26.58473 -9.56489 3.64205 2.68771
0.40841 0.06303 0.18371 30.27462 -39.76373 -4.1837 29.67218 2.73448 6.1566 4.97691 -3.36169 -0.83079 18.94693 -3.32136 61.5254 92.76081 79.39836 -4.00711 2.5353 39.33613 50.0098 -22.86359 61.68435 -58.59455 -11.74304 -3.84202 62.48383 -0.0681 -7.42841 -31.47497 -6.91298 -2.75395 -2.08188 64.2464 11.62034 -5.24694 -25.7638 -9.72449 3.78509 2.77943
0.41101 0.06373 0.18672 30.44526 -39.99289 -4.1893 29.76152 2.75123 5.62346 5.44453 -3.72045 -0.83079 18.80638 -3.36748 61.64859 92.84033 80.23069 -3.71169 2.54263 44.0632 50.68475 -27.03896 59.39389 -56.56977 -12.14084 -4.45564 62.32056 0.3335 -7.55833 -30.84661 -6.92321 -2.76455 -2.09242 64.02742 11.71984 -6.34559 -24.90387 -9.88596 3.88851 2.84819
0.41349 0.06461 0.18924 30.82437 -40.30131 -4.31957 29.82101 2.95495 4.59588 6.32699 -4.31577 -0.83079 18.57488 -3.32607 61.72865 92.75867 80.78555 -3.47629 2.39765 52.96288 50.29703 -34.00697 54.57525 -61.15027 -10.78116 -4.59561 62.21079 0.83942 -7.33613 -30.12721 -6.97654 -2.86916 -2.14944 63.94447 12.02518 -6.61576 -23.93551 -10.04588 3.87326 2.84774
0.41591 0.06555 0.19154 31.27986 -40.64592 -4.4966 29.87777 3.23087 3.37473 7.37899 -5.01049 -0.83079 18.31918 -3.24498 61.79878 92.60818 81.25388 -3.25243 2.19993 63.30272 49.47358 -41.79151 48.83305 -67.90623 -8.82447 -4.57041 62.12355 1.37337 -7.01251 -29.36729 -7.04652 -3.00422 -2.22165 63.92006 12.39414 -6.58151 -22.93006 -10.20755 3.81711 2.82356
0.41834 0.06647 0.19391 31.70201 -40.9848 -4.65551 29.94458 3.47869 2.22644 8.37304 -5.67375 -0.83079 18.08801 -3.17344 61.88109 92.47627 81.75263 -3.01335 2.02944 72.86939 48.77966 -48.99486 43.52083 -73.44534 -7.17749 -4.6201 62.03166 1.88404 -6.77176 -28.61612 -7.11 -3.12083 -2.28473 63.88266 12.72624 -6.66887 -21.94267 -10.37055 3.78007 2.81059
0.42084 0.06734 0.19641 32.1185 -41.27904 -4.8017 29.97538 3.70715 1.1355 9.28821 -6.27894 -0.83079 17.79931 -3.13608 61.93303 92.39685 82.30231 -2.81298 1.84502 82.96454 48.37352 -57.21248 38.13323 -79.92927 -5.36898 -4.68031 61.91673 2.43865 -6.37815 -27.90516 -7.16915 -3.25664 -2.35714 63.78674 13.09035 -6.83555 -20.94647 -10.52569 3.74186 2.79649
0.42318 0.06833 0.19857 32.56433 -41.67345 -4.98437 30.0797 3.99249 -0.11424 10.40684 -7.02945 -0.83079 17.62407 -3.01955 62.04356 92.1933 82.72072 -2.53739 1.67737 92.27893 47.27032 -63.36766 32.71312 -84.96149 -3.76009 -4.67267 61.85378 2.90851 -6.27477 -27.10175 -7.2411 -3.35997 -2.41384 63.82649 13.40241 -6.76099 -19.96423 -10.6967 3.69614 2.77893
0.42514 0.06967 0.19992 33.07963 -42.34966 -5.26768 30.39239 4.42147 -1.80465 12.0494 -8.14762 -0.83079 17.77668 -2.68561 62.3359 91.65111 82.79167 -2.03561 1.56629 99.22279 44.28249 -64.84322 27.21213 -85.55055 -2.78334 -4.55595 61.94275 3.13872 -7.03512 -26.04455 -7.34568 -3.36416 -2.42262 64.23261 13.56863 -6.10044 -18.99272 -10.91729 3.63751 2.7566
0.42694 0.07113 0.20093 33.62091 -43.12259 -5.58389 30.77811 4.90399 -3.63746 13.88872 -9.40962 -0.83079 18.04223 -2.27628 62.68327 90.98963 82.73273 -1.46177 1.47436 105.30121 40.6197 -64.0183 21.75179 -84.59304 -2.0383 -4.36983 62.08053 3.28251 -8.08322 -24.89742 -7.46233 -3.33513 -2.41529 64.77209 13.6782 -5.20607 -18.04348 -11.15254 3.57292 2.73164
0.42881 0.07252 0.20206 34.14521 -43.84255 -5.87791 31.12731 5.3597 -5.37395 15.63706 -10.61259 -0.83079 18.2514 -1.90553 62.99513 90.38994 82.73519 -0.9304 1.37539 111.68632 37.30911 -63.40534 16.41783 -84.27844 -1.23032 -4.18823 62.18725 3.4652 -8.97644 -23.79678 -7.57256 -3.32244 -2.41577 65.24708 13.80528 -4.41295 -17.10828 -11.37695 3.51238 2.70847
0.43068 0.07397 0.20334 34.69249 -44.60313 -6.20482 31.49076 5.83002 -7.25578 17.40322 -11.79494 -0.83079 18.48364 -1.51 63.35499 89.75213 82.72456 -0.3549 1.26762 118.4968 33.79239 -66.20532 10.44293 -84.2764 -0.22704 -4.11026 62.3332 3.65058 -9.97198 -22.67035 -7.68727 -3.305 -2.4144 65.7415 13.9692 -3.62764 -16.06979 -11.61912 3.44496 2.68211
0.43252 0.07532 0.20423 35.19899 -45.29996 -6.46954 31.84156 6.27965 -8.85975 19.17012 -13.04981 -0.83079 18.69169 -1.15514 63.62303 89.17097 82.71183 0.1416 1.18333 124.18542 30.54925 -61.50874 5.82091 -83.24775 0.31205 -3.8081 62.4075 3.80929 -10.81892 -21.5776 -7.79535 -3.28989 -2.41327 66.2251 14.04223 -2.77808 -15.25221 -11.82771 3.39072 2.66191
0.43432 0.07639 0.20419 35.56987 -45.81125 -6.56211 32.14258 6.67617 -9.71693 20.94715 -14.49675 -0.83079 18.83367 -0.87529 63.66715 88.7351 82.72104 0.44116 1.15977 127.07799 28.2403 -35.20404 4.9648 -79.58566 -0.4232 -2.85297 62.28245 3.91672 -11.23051 -20.59318 -7.88165 -3.28299 -2.41294 66.65727 13.87699 -1.77895 -15.03963 -11.94028 3.37687 2.66094
0.43609 0.07736 0.20378 35.90153 -46.25243 -6.58942 32.42784 7.04652 -10.27937 22.70681 -16.00565 -0.83079 18.9423 -0.64889 63.60896 88.36781 82.7336 0.6528 1.15891 128.84749 26.23104 -1.6981 5.46652 -74.96891 -1.61147 -1.68517 62.08163 3.99986 -11.47525 -19.647 -7.96094 -3.28055 -2.41399 67.07184 13.62217 -0.73055 -15.04874 -12.01856 3.37622 2.66609
0.43786 0.07837 0.20354 36.26168 -46.71594 -6.64124 32.71828 7.41716 -10.93809 24.43663 -17.46862 -0.83079 19.04764 -0.43563 63.56945 87.99644 82.74786 0.87767 1.14806 131.06457 24.07599 27.54244 5.32438 -70.89069 -2.56297 -0.64861 61.90839 4.09327 -11.76639 -18.68815 -8.04365 -3.28022 -2.41687 67.48656 13.4088 0.2749 -14.95627 -12.11223 3.36808 2.66752
0.43965 0.07941 0.20329 36.57774 -47.22218 -6.71551 33.01947 7.83846 -11.75634 26.33259 -19.01381 -0.83079 19.23453 -0.06447 63.64935 87.50825 82.74454 1.21265 1.13818 133.51679 21.93166 61.02683 5.29409 -66.30587 -3.65234 0.53752 61.76538 4.18722 -12.18931 -17.70711 -8.12558 -3.26164 -2.40899 67.93805 13.19026 1.37679 -14.86803 -12.20692 3.36601 2.67279
0.44141 0.08036 0.20297 36.97598 -47.62266 -6.72767 33.2938 8.14765 -12.17618 27.87596 -20.39792 -0.83079 19.24251 -0.03237 63.45546 87.27902 82.77958 1.30301 1.12929 135.22459 19.85249 87.38618 5.35543 -62.58453 -4.55947 1.46042 61.5413 4.27501 -12.29742 -16.7815 -8.20757 -3.28211 -2.42383 68.30838 12.96207 2.28482 -14.82337 -12.29152 3.3545 2.67156
0.4431 0.08104 0.20252 37.60988 -47.73763 -6.5789 33.49528 8.15005 -11.51705 28.44665 -21.34308 -0.83079 18.76269 -0.95476 62.53196 87.76766 82.92667 0.68167 1.13655 135.1439 17.82129 91.99975 5.31781 -61.34972 -4.84973 1.61546 61.10731 4.35545 -11.54955 -16.00955 -8.28917 -3.41318 -2.50326 68.44616 12.72827 2.65723 -14.8444 -12.35338 3.31412 2.65091
0.44476 0.08163 0.202 38.32738 -47.75 -6.37077 33.67023 8.04086 -10.47583 28.66245 -22.11889 -0.83079 18.105 -2.2113 61.33703 88.51116 83.11134 -0.17319 1.14085 134.35839 15.86048 89.23844 5.32925 -61.04433 -4.94035 1.49635 60.59514 4.4303 -10.49436 -15.29105 -8.37138 -3.5828 -2.60517 68.5043 12.48841 2.82939 -14.90149 -12.40671 3.2638 2.62354
0.44643 0.08227 0.20152 39.00768 -47.81589 -6.19308 33.85882 7.98492 -9.64226 29.04219 -22.95824 -0.83079 17.52783 -3.29446 60.26376 89.12617 83.27527 -0.88265 1.13335 133.90483 13.90841 90.04734 5.33094 -60.41298 -5.12311 1.49446 60.12131 4.5057 -9.59642 -14.54149 -8.45483 -3.7324 -2.69547 68.60688 12.252 3.08435 -14.94239 -12.46615 3.21775 2.59921
0.44813 0.08287 0.20101 39.68531 -47.85059 -5.9982 34.04084 7.91764 -8.65515 29.41126 -23.85828 -0.83079 16.94579 -4.46944 59.18951 89.79838 83.45586 -1.75771 1.18021 133.36251 11.79133 90.1943 5.32655 -59.35913 -5.31593 1.52894 59.63226 4.58853 -8.61844 -13.82014 -8.53193 -3.89279 -2.79175 68.67515 12.00892 3.37598 -14.99069 -12.5154 3.17301 2.57507
